<svg xmlns="http://www.w3.org/2000/svg" viewBox="0 0 1420.1 470.02"><defs><style>.cls-1{fill:#f7f7f7;}.cls-2{fill:#00092a;}.cls-3{fill:#000111;}.cls-4{fill:#00195e;}.cls-5{fill:#005de4;}.cls-6{fill:#080f2e;}.cls-7{fill:#fdfdfd;}.cls-8{fill:#000a33;}.cls-9{fill:#fff;}.cls-10{fill:#006afa;}.cls-11{fill:#006cff;}</style></defs><title>Asset 2</title><g id="Layer_2" data-name="Layer 2"><g id="Layer_1-2" data-name="Layer 1"><path class="cls-1" d="M865.55,187.06a30.51,30.51,0,0,1-30.48-30.48v-7.17c-5.38,5.49-12.77,8.52-21.39,8.52H797.23v29.13H754V72.77h61.55c9,0,19.13,4.33,24.62,13.62a30.36,30.36,0,0,1,25.41-13.62h30.19a30.53,30.53,0,0,1,30.49,30.49v53.32a30.52,30.52,0,0,1-30.49,30.48Zm17.84-41.38V112.06h-5.1v33.62ZM801.2,116.9V113h-3.87v3.87Z"/><path class="cls-1" d="M702.82,187.06h-.25c-10.35-.42-18.48-3.89-24.16-10.3a29.89,29.89,0,0,1-7.2-20.48V133.84h5.66a24.91,24.91,0,0,1-5.64-16.51V104.71c0-22.57,16.48-31.46,27.56-31.93h32.6c21.29,0,29.56,16.08,29.93,26.89v24.4h-6.26a28.17,28.17,0,0,1,6.25,17.67v15.14c-.13,21.79-19.44,29.24-29.62,30.15l-.53,0Z"/><path class="cls-2" d="M731.39,76.77H699c-9.54.4-23.73,8.17-23.73,27.93v12.74c-.33,5.18,2.1,14.5,12.51,20.39H675.21v18.52a25.89,25.89,0,0,0,6.2,17.74c4.92,5.57,12.1,8.58,21.33,9H731l.35,0c8.94-.79,25.86-7.26,26-26.16V141.66c.1-5.93-3-17.25-14.74-21.6h14.74V99.79C757,90.54,749.84,76.77,731.39,76.77ZM710.2,108h12.13l-.06,6.78-12.07-3.08h0Zm12.16,42H710.2v-5l12.16,3.2Z"/><path class="cls-1" d="M1105.92,187.06h-.25c-10.36-.42-18.49-3.89-24.16-10.3a29.89,29.89,0,0,1-7.2-20.48V133.84H1080a24.91,24.91,0,0,1-5.64-16.51V113h-11.11l.13,74.09H973.29L962.23,167.3v19.76H920V72.77h61.4a30.37,30.37,0,0,1,17.85,6.73V72.77h85v7.42a28.67,28.67,0,0,1,17.55-7.41h32.61c21.29,0,29.56,16.08,29.93,26.89v24.4h-6.26a28.12,28.12,0,0,1,6.26,17.67v15.14c-.13,21.79-19.43,29.24-29.62,30.15l-.52,0Zm-85.69,0V112.89h-10v11.69c0,2.13-.25,13.42-8.26,21.61a24.32,24.32,0,0,1-2.51,2.24Zm-54.05-71.14V112h-3.89v3.89Z"/><path class="cls-2" d="M1160.42,100.06v-.27c-.31-9.25-7.48-23-25.93-23h-32.44A24.87,24.87,0,0,0,1080.33,93V76.77h-77v14a25.74,25.74,0,0,0-22-14H924V183.06h34.19V152l17.41,31.09h37.91l-19.34-35.95a20.85,20.85,0,0,0,4.91-3.72c7-7.12,7.13-17.18,7.11-18.81V108.89h18v74.17h35.11l-.13-74.09h19.12v8.48c-.34,5.18,2.09,14.5,12.51,20.39h-12.53v18.52a25.89,25.89,0,0,0,6.2,17.74c4.92,5.57,12.1,8.58,21.33,9h28.26l.35,0c8.93-.79,25.86-7.26,26-26.16V141.66c.1-5.93-3-17.25-14.74-21.6h14.74ZM1113.29,108h12.14l-.06,6.78-12.07-3.08h0Zm12.16,42h-12.16v-5l12.16,3.2Z"/><path class="cls-2" d="M895.74,76.77H865.55a26.53,26.53,0,0,0-25.77,20.41c-2.38-14.86-15.29-20.41-24.26-20.41H758V183.06h35.26V153.93h20.45c15,0,22.73-10.11,25.39-19.62v22.27a26.51,26.51,0,0,0,26.48,26.48h30.19a26.51,26.51,0,0,0,26.49-26.48V103.26A26.52,26.52,0,0,0,895.74,76.77Z"/><polygon class="cls-1" points="1174.52 322.81 1174.52 200.08 1257.23 200.08 1257.23 242.01 1249.2 242.01 1249.2 280.79 1258.2 280.79 1258.2 322.81 1174.52 322.81"/><path class="cls-1" d="M1300,322.81l-10-22.56v22.56H1248.1l-.33-122.73h60.52c14.46,0,30,9.39,30,30v26.82a27.93,27.93,0,0,1-10.76,23.4l20.6,42.5Zm-4.67-76.25v-4.79h-4.79v4.79Z"/><path class="cls-1" d="M1354.27,322.81l-.47,0c-11.08-.83-27.54-10.35-27.54-33.19V267.87h8.5a27.56,27.56,0,0,1-8.5-20.1V229.09c.35-11.85,9.25-29.35,32.36-29.35h31.12c13.58,0,28.2,8.76,28.2,28v26.94h-8a30.87,30.87,0,0,1,8,20v19.85c0,11.37-8.16,28.29-30.29,28.29ZM1373.59,282l-3.72-.87V282Zm2.48-40.89v-.47h-1.92Z"/><path class="cls-1" d="M1095.52,322.52V284.14c-4.36,3.48-10.56,6.28-19.23,6.28h-15v32.1H990.21l-6-20.91H972.16l-4.93,20.91H922.18l.46-1.71a27.15,27.15,0,0,1-7.9,1.15H881.45a28,28,0,0,1-17.19-6.21v6.77H820.58v-8.26c-4.33,4.08-10.94,7.7-20.75,7.7H746.16v.56H708.23L695,295.91l-.14,26.61H625.53l-6-20.91h-12l-4.93,20.91h-70V281.77H527v40.75H483.21V199.74h44.05v40h4.94v-40h43v57l15.29-57h45.71l17,62.62V199.74h38.33l13.67,27.18V199.74h94.48a33.6,33.6,0,0,1,20.9,8.25v-8.26h43.68v8.08c4.83-4.18,12.3-8.08,23.39-8.08h26.58c12.07,0,30,8,30,29.94v10.56l10.87-40.5h45.71l16.52,60.72V199.74h58.87a33.09,33.09,0,0,1,19.29,6.44v-6.44h58.87c12.41,0,30.87,8.32,30.87,31.1v29.29c-.27,12.21-8.69,30.29-30.81,30.29h-15v32.1ZM904.36,281.71l-.19-16h33.26l1.92-7.16H901.29V241.93h-5v39.78Zm-116.94-.26V241.77h-7.16v39.68Zm356-31.87v-7.9h-3.9v7.9Zm-78.16,0v-7.9h-3.9v7.9Z"/><path class="cls-3" d="M1154.39,202.74h-55.87v10.54c-5.85-7.49-15.17-10.53-22.29-10.54h-55.87v80.18l-21.81-80.18H957.43l-17.7,66H907.21l.19,16H893.26V238.93h11v16.62h37V229.68c0-19.77-16.17-26.94-27-26.94H887.65c-13.74,0-22,6.34-26.39,12.94V202.74H823.58v13.72c-5.38-9.5-16-13.48-23.9-13.71H708.2v36.82l-18.52-36.82H656.2v82.08l-22.33-82.08H592.75l-20.59,76.73V202.74h-37v40H524.26v-40H486.21V319.52H524V278.77h11.55v40.75h64.65l4.94-20.91h16.68l6,20.91h64.13l.19-36.29,18,36.29h33.07V319h56.67c12.32,0,19.83-6.26,23.75-13.5v14.06h37.68V308a24.69,24.69,0,0,0,20.19,11h33.29a23.16,23.16,0,0,0,12.44-3.49l-1.09,4h38.76l4.94-20.91h16.68l6,20.91h65.82v-32.1h18c10.71,0,17.86-4.7,22.23-10.75v42.85h37.93v-32.1h18c20,0,27.57-16.32,27.81-27.29V230.84C1182.26,210.26,1165.6,202.76,1154.39,202.74ZM613.23,264.19l.19-.74.17.74Zm177.19,20.26H777.26V238.77h13.16Zm187.49-20.26.19-.74.17.74Zm90.35-11.61h-9.9v-13.9h9.9Zm78.16,0h-9.9v-13.9h9.9Z"/><path class="cls-1" d="M219,470c-41.41-2.69-78.56-13.2-110.43-31.25a220,220,0,0,1-66-57.42c-31-40.17-39.62-78.51-40-80.13l8.91-3.7C-1.87,259.67,0,220.72.15,218.74v-.18l0-.18c5.16-48.31,19.67-89.71,43.14-123C62.53,68,87.8,46,118.41,29.88,171,2.15,223.31,0,238.08,0,240,0,241,0,241,0c38.85,1.28,74.5,10.06,105.91,26.1a227.12,227.12,0,0,1,66.87,52c32.66,36.85,44.32,72.65,44.8,74.16l1.49,4.66-3.87,3a12.43,12.43,0,0,1-7.65,2.69h0a12.68,12.68,0,0,1-2.95-.35,230.21,230.21,0,0,1,17.45,73.23,209.19,209.19,0,0,1-11,81.46c-15.21,44.51-40.15,70.91-41.79,72.61-57.56,61.6-128.81,74.54-178.44,74.54q-6.3,0-12.25-.25Z"/><rect class="cls-4" x="940.94" y="-111.88" width="10.7" height="935.61" rx="5.35" transform="translate(1302.22 -590.36) rotate(90)"/><path class="cls-1" d="M842.32,402.86l-44.74-35.28v-.3H483.84a11.35,11.35,0,1,1,0-22.7H797.58V327.11H1068.3v17.47h340.45a11.35,11.35,0,0,1,0,22.7H1068.3v1.25l-42.5,34.33Z"/><path class="cls-4" d="M1408.75,347.58H1065.3V330.11H800.58v17.47H483.84a8.35,8.35,0,1,0,0,16.7H800.58v1.84l42.78,33.74h181.38l40.56-32.76v-2.82h343.45a8.35,8.35,0,0,0,0-16.7Z"/><polygon class="cls-4" points="803.58 333.11 1062.3 333.11 1062.3 365.66 1023.68 396.86 844.4 396.86 803.58 364.67 803.58 333.11"/><polygon class="cls-5" points="846.49 390.86 809.58 361.76 809.58 339.11 1056.3 339.11 1056.3 362.8 1021.56 390.86 846.49 390.86"/><path class="cls-6" d="M451.93,154.43S406.66,12.51,240.75,7c0,0-210.13-7.82-233.61,212.09,0,0-3.13,57.13,21.66,99.13,0,0-8.35-1.56-19.31-18.52,0,0,33.13,151.83,210,163.3,0,0-48.59-6-66-16.76,0,0,148.44,49.11,251.74-61.5,0,0,100.7-103.82,19.83-248.87l17.74,16.7S447.3,158,451.93,154.43Z"/><path class="cls-7" d="M730.29,112.06h19v-12s-.52-15.29-17.94-15.29h-32.1s-16.06.68-16.06,19.94v13.06s-1.16,10.84,14.13,15.49l29,7.64s3.58.2,4,4.55v8.13s.09,4.35-3.2,4.35H706.84a5.43,5.43,0,0,1-4.64-5.61v-6.48h-19v10.74s-1.43,17.61,19.86,18.48h27.58s18.58-1.64,18.68-18.19V141.58s.29-12-11.91-14.71l-28.06-7.16s-7.16.29-7.16-7.45v-8s-.49-4.25,6.67-4.25H726.2s4.16-.68,4.16,4.64Z"/><path class="cls-7" d="M1133.39,112.06h19v-12s-.51-15.29-17.93-15.29h-32.1s-16.06.68-16.06,19.94v13.06s-1.17,10.84,14.12,15.49l29,7.64s3.58.2,4,4.55v8.13s.1,4.35-3.19,4.35h-20.32a5.44,5.44,0,0,1-4.65-5.61v-6.48h-19v10.74s-1.44,17.61,19.85,18.48h27.58s18.59-1.64,18.68-18.19V141.58s.29-12-11.9-14.71l-28.07-7.16s-7.16.29-7.16-7.45v-8s-.48-4.25,6.68-4.25h17.32s4.16-.68,4.16,4.64Z"/><path class="cls-7" d="M815.52,84.77H766v90.29h19.26V145.93h28.45c17.9,0,18.48-18.77,18.48-18.77v-25C832.16,84.68,815.52,84.77,815.52,84.77Zm-7.74,44.13H785.33V101h22.74s5.13-.58,5.13,5.52v15.09S814.16,128.9,807.78,128.9Z"/><path class="cls-7" d="M895.74,84.77H865.55a18.48,18.48,0,0,0-18.48,18.49v53.32a18.48,18.48,0,0,0,18.48,18.48h30.19a18.48,18.48,0,0,0,18.49-18.48V103.26A18.49,18.49,0,0,0,895.74,84.77Zm-.35,66.05a6.86,6.86,0,0,1-6.85,6.86H873.15a6.86,6.86,0,0,1-6.86-6.86v-43.9a6.86,6.86,0,0,1,6.86-6.86h15.39a6.86,6.86,0,0,1,6.85,6.86Z"/><path class="cls-7" d="M982.36,142c16.26,0,15.87-17.33,15.87-17.33V104.32c0-19.06-17.13-19.55-17.13-19.55H932v90.29h18.19V142.84l12-.1,18.1,32.32h19.83Zm-4.18-21.12a7,7,0,0,1-7,7H950.29V100h21.55a6.34,6.34,0,0,1,6.34,6.34Z"/><polygon class="cls-7" points="1051.33 175.06 1032.23 175.06 1032.23 100.89 1011.29 100.89 1011.29 84.77 1072.33 84.77 1072.33 100.97 1051.2 100.97 1051.33 175.06"/><polygon class="cls-1" points="541.52 313.51 541.52 272.77 517.97 272.77 517.97 313.51 492.21 313.51 492.21 208.74 518.26 208.74 518.26 248.77 541.2 248.77 541.2 208.74 566.16 208.74 566.16 313.51 541.52 313.51"/><polygon class="cls-5" points="496.21 212.74 514.26 212.74 514.26 252.77 545.2 252.77 545.2 212.74 562.16 212.74 562.16 309.51 545.52 309.51 545.52 268.77 513.97 268.77 513.97 309.51 496.21 309.51 496.21 212.74"/><path class="cls-1" d="M632.31,313.52l-6-20.91H600.36l-4.93,20.91H569.24l28.11-104.78h31.94l28.49,104.78Zm-11.22-43.33L613.83,238l-8.36,32.15Z"/><path class="cls-5" d="M626.23,212.74H600.42l-26,96.78h17.81l4.94-20.91h32.13l6,20.91h17.22Zm-25.94,61.45,12.39-47.61h2.66l10.76,47.61Z"/><path class="cls-1" d="M997,313.52l-6-20.91H965l-4.94,20.91H933.92L962,208.74H994l28.5,104.78Zm-11.22-43.33L978.51,238l-8.37,32.15Z"/><path class="cls-5" d="M990.91,212.74H965.1l-26,96.78h17.81l4.93-20.91H994l6,20.91h17.23ZM965,274.19l12.39-47.61H980l10.76,47.61Z"/><polygon class="cls-1" points="713.81 313.51 686.24 257.88 685.95 313.51 662.2 313.51 662.2 208.74 685.99 208.74 714.2 264.86 714.2 208.74 737.16 208.74 737.16 313.51 713.81 313.51"/><polygon class="cls-5" points="681.97 309.51 666.2 309.51 666.2 212.74 683.52 212.74 718.2 281.72 718.2 212.74 733.16 212.74 733.16 309.51 716.29 309.51 685.2 246.77 682.29 246.77 681.97 309.51"/><path class="cls-1" d="M748,313V208.74h51.47c7.44.22,21.51,5,21.51,21.63v62.52c-.21,6.94-4.9,20.07-21.19,20.07Zm43.61-22.51a4.78,4.78,0,0,0,4.77-4.77V237a4.26,4.26,0,0,0-4.26-4.26h-20.9v57.68Z"/><path class="cls-5" d="M799.39,212.74H752V309h47.79c16.71,0,17.19-16.19,17.19-16.19v-62.4C817,213.26,799.39,212.74,799.39,212.74Zm1,72.94a8.77,8.77,0,0,1-8.77,8.77H767.26V228.77h24.9a8.26,8.26,0,0,1,8.26,8.26Z"/><rect class="cls-1" x="790.03" y="248.29" width="104.77" height="25.68" transform="translate(1103.55 -581.29) rotate(90)"/><rect class="cls-5" x="833.58" y="212.74" width="17.68" height="96.77"/><path class="cls-1" d="M881.45,313c-6.39,0-18.45-4.41-18.45-20.83V226.89l.06-.33c1-6.17,7.52-17.82,24.59-17.82h26.58c7.31,0,21,4.38,21,20.94v19.87h-25V233.17a2.68,2.68,0,0,0-1.29-.24H889.26a3.84,3.84,0,0,0-2,3.62v51l0,.25h0a3,3,0,0,0,.6,1.9c.62.67,1.95,1,3.75,1h17.71c1.25-.08,4.13-.62,4.13-3.74l-.14-12.26h22v17.94l-.09.42c-.18.81-4.48,19.89-20.43,19.89Z"/><path class="cls-5" d="M917.33,278.71h13.93v13.51S927.65,309,914.74,309H881.45S867,308.9,867,292.13V227.22s2.45-14.48,20.65-14.48h26.58s17-.29,17,16.94v15.87h-17V232.26s-.64-3.33-5.29-3.33H888.49a7.85,7.85,0,0,0-5.23,7.62v50.71s-1,7.45,8.32,7.45h17.81s8-.29,8-7.74Z"/><path class="cls-1" d="M1026.36,313.52V208.74h49.87c7.57,0,21.87,4.65,21.87,22.1V260c-.17,7.47-4.93,21.42-21.81,21.42h-24v32.1Zm42.18-54.94a5.73,5.73,0,0,0,5.72-5.73v-15.3a4.87,4.87,0,0,0-4.87-4.87h-17v25.9Z"/><path class="cls-5" d="M1076.23,212.74h-45.87v96.78h17.93v-32.1h28c17.42,0,17.81-17.42,17.81-17.42V230.84C1094.1,212.77,1076.23,212.74,1076.23,212.74Zm2,40.11a9.72,9.72,0,0,1-9.72,9.73h-20.18v-33.9h21a8.87,8.87,0,0,1,8.87,8.87Z"/><path class="cls-1" d="M1104.52,313.52V208.74h49.87c7.57,0,21.87,4.65,21.87,22.1V260c-.16,7.47-4.93,21.42-21.81,21.42h-24v32.1Zm42.18-54.94a5.73,5.73,0,0,0,5.72-5.73v-15.3a4.87,4.87,0,0,0-4.87-4.87h-17v25.9Z"/><path class="cls-5" d="M1154.39,212.74h-45.87v96.78h17.93v-32.1h28c17.42,0,17.81-17.42,17.81-17.42V230.84C1172.26,212.77,1154.39,212.74,1154.39,212.74Zm2,40.11a9.72,9.72,0,0,1-9.72,9.73h-20.18v-33.9h21a8.87,8.87,0,0,1,8.87,8.87Z"/><polygon class="cls-3" points="1177.52 319.81 1177.52 203.08 1254.23 203.08 1254.23 239.01 1214.26 239.01 1214.26 243.05 1246.2 243.05 1246.2 279.98 1214.36 279.98 1214.36 283.79 1255.2 283.79 1255.2 319.81 1177.52 319.81"/><polygon class="cls-1" points="1183.52 313.81 1183.52 209.08 1248.23 209.08 1248.23 233.01 1208.26 233.01 1208.26 249.05 1240.2 249.05 1240.2 273.98 1208.36 273.98 1208.36 289.79 1249.2 289.79 1249.2 313.81 1183.52 313.81"/><polygon class="cls-5" points="1187.52 213.08 1244.23 213.08 1244.23 229.01 1204.26 229.01 1204.26 253.05 1236.2 253.05 1236.2 269.98 1204.36 269.98 1204.36 293.79 1245.2 293.79 1245.2 309.81 1187.52 309.81 1187.52 213.08"/><path class="cls-3" d="M1301.93,319.81l-15-33.67v33.67h-35.85l-.31-116.73h57.51c13,0,27,8.45,27,27V257a24.82,24.82,0,0,1-11.57,22.31l19.62,40.49Zm-3.62-70.25V238.77h-10.79v10.79Z"/><path class="cls-1" d="M1305.82,313.81l-15.74-35.36h-9.14v35.36h-23.86l-.28-104.73h51.49c7.86,0,21,4.42,21,21v27.15c.44,5.29-2,15.22-13.58,19.31l18,37.26ZM1300,255.56a4.27,4.27,0,0,0,4.27-4.27V237.05a4.28,4.28,0,0,0-4.27-4.28h-18.52v22.79Z"/><path class="cls-5" d="M1311.13,276.26v-2.58c15.49-3.23,14.17-16.26,14.17-16.26V230.09c0-17.4-17-17-17-17h-47.48l.26,96.73h15.87V274.45h15.74l15.74,35.36h19Zm-2.82-25a8.27,8.27,0,0,1-8.27,8.27h-20.63a1.88,1.88,0,0,1-1.89-1.88v-27a1.89,1.89,0,0,1,1.89-1.89H1300a8.28,8.28,0,0,1,8.27,8.28Z"/><path class="cls-3" d="M1354.38,319.81l-.36,0c-10-.75-24.76-9.41-24.76-30.2V270.87h14.53c-6.85-3.74-14.53-11.14-14.53-23.1V229.1c.31-10.6,8.38-26.36,29.36-26.36h31.12c12.13,0,25.2,7.82,25.2,25v23.94h-13.26a27.79,27.79,0,0,1,13.25,23.12v19.72c0,10.18-7.35,25.29-27.29,25.29ZM1380.16,285v-4.55l-13.29-3.1V285Zm-12.8-43.1a22.23,22.23,0,0,0,3.85,1.12l.2,0,7.66,1.88v-7.3h-11.71Z"/><path class="cls-1" d="M1354.59,313.81l-.14,0c-6.64-.49-19.19-6.19-19.19-24.21V276.87h25.61v12.38c.16,1.48,1.57,1.71,2.65,1.75h19.2l.2,0h.07a3.81,3.81,0,0,0,2-.53c.79-.53,1.19-1.68,1.19-3.43v-8.35c0-1.81-.7-4-3.79-4h-.43l-30.46-7.1c-5.61-1.51-16.22-7.61-16.22-19.83v-18.5c.21-7.1,5.36-20.53,23.36-20.53h31.12c7.13,0,19.2,4,19.2,19v17.94h-23.87V232.33h0c-.25-.25-1.22-.68-3.28-.68h-18.19c-2.23,0-2.23,1.17-2.23,2.21v10.94c.16.37,1.44,2.61,8.62,4.11l24.23,5.93c4.9,1.33,14.13,7.23,14.72,20.26v19.44c0,6.68-4.52,19.29-21.29,19.29Z"/><path class="cls-5" d="M1358.62,212.74h31s15.36-.48,15.36,15v13.94h-15.87V233s1-5.33-7.29-5.33h-17.84s-6.58-.58-6.58,6.2v10.93s-.68,5.42,11.8,8l24.1,5.9s11.07,3,11.68,16.55v19.26s-.07,15.29-17.29,15.29h-32.91s-15.48-1.17-15.48-20.23v-8.71h17.61v8.52s.1,5.42,6.58,5.61h19.07s7.64.77,7.64-7.94v-8.35s.1-7.9-7.74-8l-29.9-7s-13.26-3.58-13.26-16V229.39S1339.74,212.74,1358.62,212.74Z"/><path class="cls-1" d="M477.3,124.72a4.69,4.69,0,0,1-3.83-2L467.9,115a4.7,4.7,0,0,1,3.83-7.43H659.6a4.71,4.71,0,0,1,4.71,4.7V120a4.71,4.71,0,0,1-4.71,4.7Z"/><path class="cls-8" d="M477.3,121.72H659.6a1.7,1.7,0,0,0,1.71-1.7v-7.8a1.7,1.7,0,0,0-1.71-1.7H471.73a1.7,1.7,0,0,0-1.38,2.69l5.56,7.8A1.7,1.7,0,0,0,477.3,121.72Z"/><path class="cls-1" d="M500.3,155.69a4.72,4.72,0,0,1-3.83-2l-5.57-7.8a4.71,4.71,0,0,1,3.83-7.44H659.6a4.71,4.71,0,0,1,4.71,4.71V151a4.71,4.71,0,0,1-4.71,4.7Z"/><path class="cls-8" d="M500.3,152.69H659.6a1.7,1.7,0,0,0,1.71-1.7v-7.8a1.71,1.71,0,0,0-1.71-1.71H494.73a1.71,1.71,0,0,0-1.38,2.7l5.56,7.8A1.7,1.7,0,0,0,500.3,152.69Z"/><path class="cls-1" d="M1177.27,124.72a4.71,4.71,0,0,1-4.7-4.7v-7.8a4.71,4.71,0,0,1,4.7-4.7h212.87A4.7,4.7,0,0,1,1394,115l-5.56,7.8a4.71,4.71,0,0,1-3.83,2Z"/><path class="cls-8" d="M1384.58,121.72H1177.27a1.7,1.7,0,0,1-1.7-1.7v-7.8a1.7,1.7,0,0,1,1.7-1.7h212.87a1.7,1.7,0,0,1,1.39,2.69L1386,121A1.68,1.68,0,0,1,1384.58,121.72Z"/><path class="cls-1" d="M1177.27,155.69a4.71,4.71,0,0,1-4.7-4.7v-7.8a4.71,4.71,0,0,1,4.7-4.71h189.87a4.7,4.7,0,0,1,3.83,7.44l-5.56,7.8a4.73,4.73,0,0,1-3.83,2Z"/><path class="cls-8" d="M1361.58,152.69H1177.27a1.7,1.7,0,0,1-1.7-1.7v-7.8a1.71,1.71,0,0,1,1.7-1.71h189.87a1.71,1.71,0,0,1,1.39,2.7L1363,152A1.68,1.68,0,0,1,1361.58,152.69Z"/><polygon class="cls-9" points="870.1 357.22 876.16 342.9 882.55 357.22 897.33 357.22 884.16 368.45 890.29 383.29 875.65 372.96 860.29 383.29 867.26 367.67 853.26 357.03 870.1 357.22"/><polygon class="cls-9" points="928.07 357.22 934.13 342.9 940.52 357.22 955.29 357.22 942.13 368.45 948.26 383.29 933.62 372.96 918.26 383.29 925.23 367.67 911.23 357.03 928.07 357.22"/><polygon class="cls-9" points="984.33 357.22 990.39 342.9 996.78 357.22 1011.55 357.22 998.39 368.45 1004.52 383.29 989.87 372.96 974.52 383.29 981.49 367.67 967.49 357.03 984.33 357.22"/><path class="cls-9" d="M327.3,317.89a8,8,0,0,1-8-8v-51h-45v51a8,8,0,0,1-8,8H235.43a8,8,0,0,1-8-8V160.6a8,8,0,0,1,8-8h31a8,8,0,0,1,8,8v52.13h43.87V160.6a8,8,0,0,1,8-8h33a8,8,0,0,1,8,8V309.89a8,8,0,0,1-8,8Z"/><path class="cls-9" d="M122.14,318.53a7.92,7.92,0,0,1-4.61-1.46c-1.37-1-13.57-10.19-20.3-36.7a8,8,0,0,1,7.75-10H188c.74-.5,2.37-2.23,2.37-7.61a6.79,6.79,0,0,1,0-.78c.09-1.18-.11-4-1.32-5.36-.91-1-2.75-1.21-4.14-1.21H131.81c-9.9-.23-35.61-7.69-35.61-39.1V194.15q0-.35,0-.69c0-.42,4.06-42,44.1-42H226a8,8,0,0,1,6.53,12.62l-23.29,33a8,8,0,0,1-6.53,3.39H143.2a9.51,9.51,0,0,0-.8,4.51,7.46,7.46,0,0,1-.06,1,6.36,6.36,0,0,0,.6,3.54,3,3,0,0,0,1.65.29h49.68l.61,0c.4,0,39.07,3.46,39.07,42.17v25.49c.1,2.46.27,17.87-10.49,29.31-7.36,7.82-17.79,11.78-31,11.78Z"/><polygon class="cls-6" points="323.3 313.89 323.3 254.92 270.27 254.92 270.27 313.89 231.43 313.89 231.43 156.6 270.4 156.6 270.4 216.73 322.27 216.73 322.27 156.6 363.3 156.6 363.3 313.89 323.3 313.89"/><polygon class="cls-10" points="235.43 160.6 266.4 160.6 266.4 220.73 326.27 220.73 326.27 160.6 359.3 160.6 359.3 309.89 327.3 309.89 327.3 250.92 266.27 250.92 266.27 309.89 235.43 309.89 235.43 160.6"/><path class="cls-11" d="M108.36,99.38S169.14,30.9,265.8,39.12c0,0,96.71,9.41,144,87.47,0,0-34.24-39.07-100.29-57.79C309.54,68.8,209.06,26.34,108.36,99.38Z"/><path class="cls-11" d="M331.49,367.49S288.1,430,184.4,420.64c0,0-121.3-15.93-153.78-136.31l29,8c29.68,82,103.25,98.94,103.25,98.94,76.84,19.87,132.21-3.8,163.62-25.18l5,1.38Z"/><path class="cls-9" d="M67.43,143.8A192.66,192.66,0,0,0,56.61,283.29c1,3.11,2,6.12,3,9.06,29.68,82,103.25,98.94,103.25,98.94,76.84,19.87,132.21-3.8,163.62-25.18,19.59-13.34,29.86-25.78,30.2-26.2a128.47,128.47,0,0,1-25.22,27.58c-46.88,38.27-112.54,37.46-145.76,34a170.86,170.86,0,0,1-38.05-8.4C77,368.63,45,323.44,30.62,284.33s-10.95-72.25-10.95-72.25C43.93,9.38,234.1,14.47,234.1,14.47c147.54.77,203.39,122.89,204.25,124.8C355.39,14.46,238.27,27.9,238.27,27.9,137.63,41.66,90,97,67.43,143.8Z"/><path class="cls-9" d="M27.16,327.6S95.27,481.89,285.44,443.12c0,0,129.4-29.86,157.69-158.74,0,0,17.29-109-43.48-169.22,0,0-36.41-33.26-90.11-46.36,0,0,150.35,56.32,106.87,221.34,0,0-27.76,102.68-140.92,135.17C275.49,425.31,117.53,476.52,27.16,327.6Z"/><path class="cls-6" d="M120.87,314.53l-1-.73c-.49-.35-12.25-8.89-18.73-34.41l-1.26-5h89.09c1-.31,5.47-2.2,5.47-11.61v-.22l0-.21s.48-5.28-2.35-8.4c-1.53-1.7-3.85-2.52-7.09-2.52H132c-.41,0-31.75-1.13-31.75-35.1V194l0-.17c1.13-13.25,11-38.31,40.11-38.31h93.34l-28.94,41H141.78c-.78.32-3.38,1.9-3.38,8.51v.27l0,.26c-.13,1.17-.13,4.69,1.59,6.62,1,1.1,2.49,1.63,4.64,1.63h50C206.81,214.72,230,223.92,230,252v25.58c.07,1.68.42,16-9.4,26.48-6.57,7-16,10.52-28.09,10.52Z"/><path class="cls-1" d="M226,159.5l-23.29,33H141.24s-6.84,1-6.84,12.51c0,0-1.68,12.78,10.19,12.78h49.68S226,220.21,226,252v25.68s2,32.9-33.49,32.9H122.14s-11-7.74-17.16-32.13h84.39s9-1.42,9-15.61c0,0,1.68-15.35-13.42-15.35H132s-27.74-.65-27.74-31.1V194.15s3-34.65,36.12-34.65Z"/></g></g></svg>